<svg width="24" height="24" viewBox="0 0 24 24" fill="none" xmlns="http://www.w3.org/2000/svg">
<path d="M7.68 1.44C4.2384 1.44 1.44 4.2384 1.44 7.68V16.32C1.44 19.7616 4.2384 22.56 7.68 22.56H16.32C19.7616 22.56 22.56 19.7616 22.56 16.32V7.68C22.56 4.2384 19.7616 1.44 16.32 1.44H7.68ZM17.76 5.28C18.288 5.28 18.72 5.712 18.72 6.24C18.72 6.768 18.288 7.2 17.76 7.2C17.232 7.2 16.8 6.768 16.8 6.24C16.8 5.712 17.232 5.28 17.76 5.28ZM12 6.72C14.9136 6.72 17.28 9.0864 17.28 12C17.28 14.9136 14.9136 17.28 12 17.28C9.0864 17.28 6.72 14.9136 6.72 12C6.72 9.0864 9.0864 6.72 12 6.72ZM12 7.68C9.6192 7.68 7.68 9.6192 7.68 12C7.68 14.3808 9.6192 16.32 12 16.32C14.3808 16.32 16.32 14.3808 16.32 12C16.32 9.6192 14.3808 7.68 12 7.68Z" fill="white"/>
</svg>
