<svg width="32" height="32" viewBox="0 0 32 32" fill="none" xmlns="http://www.w3.org/2000/svg">
<path d="M28.9904 23.5C27.5905 25.9246 25.5401 27.9091 23.071 29.2288C20.6018 30.5486 17.8127 31.151 15.019 30.9679C12.2253 30.7848 9.53856 29.8235 7.26283 28.1927C4.98711 26.5619 3.2132 24.3268 2.14181 21.7403C1.07041 19.1537 0.744293 16.3189 1.20035 13.5566C1.65641 10.7943 2.87644 8.21473 4.7224 6.10981C6.56837 4.00489 8.96659 2.4586 11.6457 1.6459C14.3249 0.833187 17.178 0.786498 19.8823 1.51111L18.53 6.5579C16.7677 6.08569 14.9084 6.11611 13.1624 6.64574C11.4165 7.17536 9.85361 8.18305 8.65063 9.55478C7.44766 10.9265 6.65259 12.6075 6.35539 14.4077C6.05818 16.2078 6.27071 18.0552 6.96891 19.7408C7.66712 21.4264 8.82314 22.883 10.3062 23.9457C11.7892 25.0085 13.5401 25.6349 15.3607 25.7542C17.1813 25.8736 18.9989 25.481 20.608 24.6209C22.2171 23.7609 23.5533 22.4677 24.4656 20.8876L28.9904 23.5Z" fill="#D9D9D9"/>
<path d="M28.9904 23.5C27.5905 25.9246 25.5401 27.9091 23.071 29.2288C20.6018 30.5486 17.8127 31.151 15.019 30.9679C12.2253 30.7848 9.53856 29.8235 7.26283 28.1927C4.98711 26.5619 3.2132 24.3268 2.14181 21.7403C1.07041 19.1537 0.744293 16.3189 1.20035 13.5566C1.65641 10.7943 2.87644 8.21473 4.7224 6.10981C6.56837 4.00489 8.96659 2.4586 11.6457 1.6459C14.3249 0.833187 17.178 0.786498 19.8823 1.51111L18.53 6.5579C16.7677 6.08569 14.9084 6.11611 13.1624 6.64574C11.4165 7.17536 9.85361 8.18305 8.65063 9.55478C7.44766 10.9265 6.65259 12.6075 6.35539 14.4077C6.05818 16.2078 6.27071 18.0552 6.96891 19.7408C7.66712 21.4264 8.82314 22.883 10.3062 23.9457C11.7892 25.0085 13.5401 25.6349 15.3607 25.7542C17.1813 25.8736 18.9989 25.481 20.608 24.6209C22.2171 23.7609 23.5533 22.4677 24.4656 20.8876L28.9904 23.5Z" fill="url(#paint0_linear_171_84)"/>
<path fill-rule="evenodd" clip-rule="evenodd" d="M26.5002 13.6667C27.7888 13.6667 28.8335 12.622 28.8335 11.3333C28.8335 10.0447 27.7888 9 26.5002 9C25.2115 9 24.1668 10.0447 24.1668 11.3333C24.1668 12.622 25.2115 13.6667 26.5002 13.6667ZM16 21C18.7614 21 21 18.7614 21 16C21 13.2386 18.7614 11 16 11C13.2386 11 11 13.2386 11 16C11 18.7614 13.2386 21 16 21Z" fill="#D9D9D9"/>
<path fill-rule="evenodd" clip-rule="evenodd" d="M26.5002 13.6667C27.7888 13.6667 28.8335 12.622 28.8335 11.3333C28.8335 10.0447 27.7888 9 26.5002 9C25.2115 9 24.1668 10.0447 24.1668 11.3333C24.1668 12.622 25.2115 13.6667 26.5002 13.6667ZM16 21C18.7614 21 21 18.7614 21 16C21 13.2386 18.7614 11 16 11C13.2386 11 11 13.2386 11 16C11 18.7614 13.2386 21 16 21Z" fill="url(#paint1_linear_171_84)"/>
<defs>
<linearGradient id="paint0_linear_171_84" x1="0.7516" y1="3.2956" x2="18.2908" y2="24.5233" gradientUnits="userSpaceOnUse">
<stop stop-color="#41D1FF"/>
<stop offset="1" stop-color="#BD34FE"/>
</linearGradient>
<linearGradient id="paint1_linear_171_84" x1="24.7502" y1="13.0833" x2="11.5114" y2="19.2067" gradientUnits="userSpaceOnUse">
<stop stop-color="#FFEA83"/>
<stop offset="0.08333" stop-color="#FFDD35"/>
<stop offset="1" stop-color="#FFA800"/>
</linearGradient>
</defs>
</svg>
